<?xml version="1.0" encoding="utf-8" standalone="no"?>
<!DOCTYPE svg PUBLIC "-//W3C//DTD SVG 1.1//EN"
  "http://www.w3.org/Graphics/SVG/1.1/DTD/svg11.dtd">
<svg xmlns:xlink="http://www.w3.org/1999/xlink" width="748.8pt" height="633.6pt" viewBox="0 0 748.8 633.6" xmlns="http://www.w3.org/2000/svg" version="1.1">
 <metadata>
  <rdf:RDF xmlns:dc="http://purl.org/dc/elements/1.1/" xmlns:cc="http://creativecommons.org/ns#" xmlns:rdf="http://www.w3.org/1999/02/22-rdf-syntax-ns#">
   <cc:Work>
    <dc:type rdf:resource="http://purl.org/dc/dcmitype/StillImage"/>
    <dc:date>2022-08-24T17:31:12.592322</dc:date>
    <dc:format>image/svg+xml</dc:format>
    <dc:creator>
     <cc:Agent>
      <dc:title>Matplotlib v3.5.1, https://matplotlib.org/</dc:title>
     </cc:Agent>
    </dc:creator>
   </cc:Work>
  </rdf:RDF>
 </metadata>
 <defs>
  <style type="text/css">*{stroke-linejoin: round; stroke-linecap: butt}</style>
 </defs>
 <g id="figure_1">
  <g id="patch_1">
   <path d="M 0 633.6 
L 748.8 633.6 
L 748.8 0 
L 0 0 
z
" style="fill: #ffffff"/>
  </g>
  <g id="axes_1">
   <g id="patch_2">
    <path d="M 126.510469 541.405156 
L 726.12 541.405156 
L 726.12 22.68 
L 126.510469 22.68 
z
" style="fill: #ffffff"/>
   </g>
   <g id="matplotlib.axis_1">
    <g id="xtick_1">
     <g id="text_1">
      <!-- 0 -->
      <g style="fill: #262626" transform="translate(145.01701 571.800859)scale(0.275 -0.275)">
       <defs>
        <path id="DejaVuSans-30" d="M 2034 4250 
Q 1547 4250 1301 3770 
Q 1056 3291 1056 2328 
Q 1056 1369 1301 889 
Q 1547 409 2034 409 
Q 2525 409 2770 889 
Q 3016 1369 3016 2328 
Q 3016 3291 2770 3770 
Q 2525 4250 2034 4250 
z
M 2034 4750 
Q 2819 4750 3233 4129 
Q 3647 3509 3647 2328 
Q 3647 1150 3233 529 
Q 2819 -91 2034 -91 
Q 1250 -91 836 529 
Q 422 1150 422 2328 
Q 422 3509 836 4129 
Q 1250 4750 2034 4750 
z
" transform="scale(0.015625)"/>
       </defs>
       <use xlink:href="#DejaVuSans-30"/>
      </g>
     </g>
    </g>
    <g id="xtick_2">
     <g id="text_2">
      <!-- 50 -->
      <g style="fill: #262626" transform="translate(287.685121 571.800859)scale(0.275 -0.275)">
       <defs>
        <path id="DejaVuSans-35" d="M 691 4666 
L 3169 4666 
L 3169 4134 
L 1269 4134 
L 1269 2991 
Q 1406 3038 1543 3061 
Q 1681 3084 1819 3084 
Q 2600 3084 3056 2656 
Q 3513 2228 3513 1497 
Q 3513 744 3044 326 
Q 2575 -91 1722 -91 
Q 1428 -91 1123 -41 
Q 819 9 494 109 
L 494 744 
Q 775 591 1075 516 
Q 1375 441 1709 441 
Q 2250 441 2565 725 
Q 2881 1009 2881 1497 
Q 2881 1984 2565 2268 
Q 2250 2553 1709 2553 
Q 1456 2553 1204 2497 
Q 953 2441 691 2322 
L 691 4666 
z
" transform="scale(0.015625)"/>
       </defs>
       <use xlink:href="#DejaVuSans-35"/>
       <use xlink:href="#DejaVuSans-30" x="63.623047"/>
      </g>
     </g>
    </g>
    <g id="xtick_3">
     <g id="text_3">
      <!-- 100 -->
      <g style="fill: #262626" transform="translate(430.353232 571.800859)scale(0.275 -0.275)">
       <defs>
        <path id="DejaVuSans-31" d="M 794 531 
L 1825 531 
L 1825 4091 
L 703 3866 
L 703 4441 
L 1819 4666 
L 2450 4666 
L 2450 531 
L 3481 531 
L 3481 0 
L 794 0 
L 794 531 
z
" transform="scale(0.015625)"/>
       </defs>
       <use xlink:href="#DejaVuSans-31"/>
       <use xlink:href="#DejaVuSans-30" x="63.623047"/>
       <use xlink:href="#DejaVuSans-30" x="127.246094"/>
      </g>
     </g>
    </g>
    <g id="xtick_4">
     <g id="text_4">
      <!-- 150 -->
      <g style="fill: #262626" transform="translate(581.76978 571.800859)scale(0.275 -0.275)">
       <use xlink:href="#DejaVuSans-31"/>
       <use xlink:href="#DejaVuSans-35" x="63.623047"/>
       <use xlink:href="#DejaVuSans-30" x="127.246094"/>
      </g>
     </g>
    </g>
    <g id="text_5">
     <!-- Stimulus $\theta$ (deg) -->
     <g style="fill: #262626" transform="translate(302.415234 604.62)scale(0.3 -0.3)">
      <defs>
       <path id="DejaVuSans-53" d="M 3425 4513 
L 3425 3897 
Q 3066 4069 2747 4153 
Q 2428 4238 2131 4238 
Q 1616 4238 1336 4038 
Q 1056 3838 1056 3469 
Q 1056 3159 1242 3001 
Q 1428 2844 1947 2747 
L 2328 2669 
Q 3034 2534 3370 2195 
Q 3706 1856 3706 1288 
Q 3706 609 3251 259 
Q 2797 -91 1919 -91 
Q 1588 -91 1214 -16 
Q 841 59 441 206 
L 441 856 
Q 825 641 1194 531 
Q 1563 422 1919 422 
Q 2459 422 2753 634 
Q 3047 847 3047 1241 
Q 3047 1584 2836 1778 
Q 2625 1972 2144 2069 
L 1759 2144 
Q 1053 2284 737 2584 
Q 422 2884 422 3419 
Q 422 4038 858 4394 
Q 1294 4750 2059 4750 
Q 2388 4750 2728 4690 
Q 3069 4631 3425 4513 
z
" transform="scale(0.015625)"/>
       <path id="DejaVuSans-74" d="M 1172 4494 
L 1172 3500 
L 2356 3500 
L 2356 3053 
L 1172 3053 
L 1172 1153 
Q 1172 725 1289 603 
Q 1406 481 1766 481 
L 2356 481 
L 2356 0 
L 1766 0 
Q 1100 0 847 248 
Q 594 497 594 1153 
L 594 3053 
L 172 3053 
L 172 3500 
L 594 3500 
L 594 4494 
L 1172 4494 
z
" transform="scale(0.015625)"/>
       <path id="DejaVuSans-69" d="M 603 3500 
L 1178 3500 
L 1178 0 
L 603 0 
L 603 3500 
z
M 603 4863 
L 1178 4863 
L 1178 4134 
L 603 4134 
L 603 4863 
z
" transform="scale(0.015625)"/>
       <path id="DejaVuSans-6d" d="M 3328 2828 
Q 3544 3216 3844 3400 
Q 4144 3584 4550 3584 
Q 5097 3584 5394 3201 
Q 5691 2819 5691 2113 
L 5691 0 
L 5113 0 
L 5113 2094 
Q 5113 2597 4934 2840 
Q 4756 3084 4391 3084 
Q 3944 3084 3684 2787 
Q 3425 2491 3425 1978 
L 3425 0 
L 2847 0 
L 2847 2094 
Q 2847 2600 2669 2842 
Q 2491 3084 2119 3084 
Q 1678 3084 1418 2786 
Q 1159 2488 1159 1978 
L 1159 0 
L 581 0 
L 581 3500 
L 1159 3500 
L 1159 2956 
Q 1356 3278 1631 3431 
Q 1906 3584 2284 3584 
Q 2666 3584 2933 3390 
Q 3200 3197 3328 2828 
z
" transform="scale(0.015625)"/>
       <path id="DejaVuSans-75" d="M 544 1381 
L 544 3500 
L 1119 3500 
L 1119 1403 
Q 1119 906 1312 657 
Q 1506 409 1894 409 
Q 2359 409 2629 706 
Q 2900 1003 2900 1516 
L 2900 3500 
L 3475 3500 
L 3475 0 
L 2900 0 
L 2900 538 
Q 2691 219 2414 64 
Q 2138 -91 1772 -91 
Q 1169 -91 856 284 
Q 544 659 544 1381 
z
M 1991 3584 
L 1991 3584 
z
" transform="scale(0.015625)"/>
       <path id="DejaVuSans-6c" d="M 603 4863 
L 1178 4863 
L 1178 0 
L 603 0 
L 603 4863 
z
" transform="scale(0.015625)"/>
       <path id="DejaVuSans-73" d="M 2834 3397 
L 2834 2853 
Q 2591 2978 2328 3040 
Q 2066 3103 1784 3103 
Q 1356 3103 1142 2972 
Q 928 2841 928 2578 
Q 928 2378 1081 2264 
Q 1234 2150 1697 2047 
L 1894 2003 
Q 2506 1872 2764 1633 
Q 3022 1394 3022 966 
Q 3022 478 2636 193 
Q 2250 -91 1575 -91 
Q 1294 -91 989 -36 
Q 684 19 347 128 
L 347 722 
Q 666 556 975 473 
Q 1284 391 1588 391 
Q 1994 391 2212 530 
Q 2431 669 2431 922 
Q 2431 1156 2273 1281 
Q 2116 1406 1581 1522 
L 1381 1569 
Q 847 1681 609 1914 
Q 372 2147 372 2553 
Q 372 3047 722 3315 
Q 1072 3584 1716 3584 
Q 2034 3584 2315 3537 
Q 2597 3491 2834 3397 
z
" transform="scale(0.015625)"/>
       <path id="DejaVuSans-20" transform="scale(0.015625)"/>
       <path id="DejaVuSans-Oblique-3b8" d="M 2913 2219 
L 925 2219 
Q 791 1284 928 888 
Q 1100 400 1566 400 
Q 2034 400 2391 891 
Q 2703 1322 2913 2219 
z
M 3009 2750 
Q 3094 3638 2984 3950 
Q 2813 4444 2353 4444 
Q 1875 4444 1525 3956 
Q 1250 3563 1034 2750 
L 3009 2750 
z
M 2444 4913 
Q 3194 4913 3494 4250 
Q 3794 3591 3566 2422 
Q 3341 1256 2781 594 
Q 2225 -72 1475 -72 
Q 722 -72 425 594 
Q 128 1256 353 2422 
Q 581 3591 1134 4250 
Q 1691 4913 2444 4913 
z
" transform="scale(0.015625)"/>
       <path id="DejaVuSans-28" d="M 1984 4856 
Q 1566 4138 1362 3434 
Q 1159 2731 1159 2009 
Q 1159 1288 1364 580 
Q 1569 -128 1984 -844 
L 1484 -844 
Q 1016 -109 783 600 
Q 550 1309 550 2009 
Q 550 2706 781 3412 
Q 1013 4119 1484 4856 
L 1984 4856 
z
" transform="scale(0.015625)"/>
       <path id="DejaVuSans-64" d="M 2906 2969 
L 2906 4863 
L 3481 4863 
L 3481 0 
L 2906 0 
L 2906 525 
Q 2725 213 2448 61 
Q 2172 -91 1784 -91 
Q 1150 -91 751 415 
Q 353 922 353 1747 
Q 353 2572 751 3078 
Q 1150 3584 1784 3584 
Q 2172 3584 2448 3432 
Q 2725 3281 2906 2969 
z
M 947 1747 
Q 947 1113 1208 752 
Q 1469 391 1925 391 
Q 2381 391 2643 752 
Q 2906 1113 2906 1747 
Q 2906 2381 2643 2742 
Q 2381 3103 1925 3103 
Q 1469 3103 1208 2742 
Q 947 2381 947 1747 
z
" transform="scale(0.015625)"/>
       <path id="DejaVuSans-65" d="M 3597 1894 
L 3597 1613 
L 953 1613 
Q 991 1019 1311 708 
Q 1631 397 2203 397 
Q 2534 397 2845 478 
Q 3156 559 3463 722 
L 3463 178 
Q 3153 47 2828 -22 
Q 2503 -91 2169 -91 
Q 1331 -91 842 396 
Q 353 884 353 1716 
Q 353 2575 817 3079 
Q 1281 3584 2069 3584 
Q 2775 3584 3186 3129 
Q 3597 2675 3597 1894 
z
M 3022 2063 
Q 3016 2534 2758 2815 
Q 2500 3097 2075 3097 
Q 1594 3097 1305 2825 
Q 1016 2553 972 2059 
L 3022 2063 
z
" transform="scale(0.015625)"/>
       <path id="DejaVuSans-67" d="M 2906 1791 
Q 2906 2416 2648 2759 
Q 2391 3103 1925 3103 
Q 1463 3103 1205 2759 
Q 947 2416 947 1791 
Q 947 1169 1205 825 
Q 1463 481 1925 481 
Q 2391 481 2648 825 
Q 2906 1169 2906 1791 
z
M 3481 434 
Q 3481 -459 3084 -895 
Q 2688 -1331 1869 -1331 
Q 1566 -1331 1297 -1286 
Q 1028 -1241 775 -1147 
L 775 -588 
Q 1028 -725 1275 -790 
Q 1522 -856 1778 -856 
Q 2344 -856 2625 -561 
Q 2906 -266 2906 331 
L 2906 616 
Q 2728 306 2450 153 
Q 2172 0 1784 0 
Q 1141 0 747 490 
Q 353 981 353 1791 
Q 353 2603 747 3093 
Q 1141 3584 1784 3584 
Q 2172 3584 2450 3431 
Q 2728 3278 2906 2969 
L 2906 3500 
L 3481 3500 
L 3481 434 
z
" transform="scale(0.015625)"/>
       <path id="DejaVuSans-29" d="M 513 4856 
L 1013 4856 
Q 1481 4119 1714 3412 
Q 1947 2706 1947 2009 
Q 1947 1309 1714 600 
Q 1481 -109 1013 -844 
L 513 -844 
Q 928 -128 1133 580 
Q 1338 1288 1338 2009 
Q 1338 2731 1133 3434 
Q 928 4138 513 4856 
z
" transform="scale(0.015625)"/>
      </defs>
      <use xlink:href="#DejaVuSans-53" transform="translate(0 0.234375)"/>
      <use xlink:href="#DejaVuSans-74" transform="translate(63.476562 0.234375)"/>
      <use xlink:href="#DejaVuSans-69" transform="translate(102.685547 0.234375)"/>
      <use xlink:href="#DejaVuSans-6d" transform="translate(130.46875 0.234375)"/>
      <use xlink:href="#DejaVuSans-75" transform="translate(227.880859 0.234375)"/>
      <use xlink:href="#DejaVuSans-6c" transform="translate(291.259766 0.234375)"/>
      <use xlink:href="#DejaVuSans-75" transform="translate(319.042969 0.234375)"/>
      <use xlink:href="#DejaVuSans-73" transform="translate(382.421875 0.234375)"/>
      <use xlink:href="#DejaVuSans-20" transform="translate(434.521484 0.234375)"/>
      <use xlink:href="#DejaVuSans-Oblique-3b8" transform="translate(466.308594 0.234375)"/>
      <use xlink:href="#DejaVuSans-20" transform="translate(527.490234 0.234375)"/>
      <use xlink:href="#DejaVuSans-28" transform="translate(559.277344 0.234375)"/>
      <use xlink:href="#DejaVuSans-64" transform="translate(598.291016 0.234375)"/>
      <use xlink:href="#DejaVuSans-65" transform="translate(661.767578 0.234375)"/>
      <use xlink:href="#DejaVuSans-67" transform="translate(723.291016 0.234375)"/>
      <use xlink:href="#DejaVuSans-29" transform="translate(786.767578 0.234375)"/>
     </g>
    </g>
   </g>
   <g id="matplotlib.axis_2">
    <g id="ytick_1">
     <g id="text_6">
      <!-- 5.0 -->
      <g style="fill: #262626" transform="translate(73.276875 447.91563)scale(0.275 -0.275)">
       <defs>
        <path id="DejaVuSans-2e" d="M 684 794 
L 1344 794 
L 1344 0 
L 684 0 
L 684 794 
z
" transform="scale(0.015625)"/>
       </defs>
       <use xlink:href="#DejaVuSans-35"/>
       <use xlink:href="#DejaVuSans-2e" x="63.623047"/>
       <use xlink:href="#DejaVuSans-30" x="95.410156"/>
      </g>
     </g>
    </g>
    <g id="ytick_2">
     <g id="text_7">
      <!-- 7.5 -->
      <g style="fill: #262626" transform="translate(73.276875 335.833347)scale(0.275 -0.275)">
       <defs>
        <path id="DejaVuSans-37" d="M 525 4666 
L 3525 4666 
L 3525 4397 
L 1831 0 
L 1172 0 
L 2766 4134 
L 525 4134 
L 525 4666 
z
" transform="scale(0.015625)"/>
       </defs>
       <use xlink:href="#DejaVuSans-37"/>
       <use xlink:href="#DejaVuSans-2e" x="63.623047"/>
       <use xlink:href="#DejaVuSans-35" x="95.410156"/>
      </g>
     </g>
    </g>
    <g id="ytick_3">
     <g id="text_8">
      <!-- 10.0 -->
      <g style="fill: #262626" transform="translate(55.78 223.751065)scale(0.275 -0.275)">
       <use xlink:href="#DejaVuSans-31"/>
       <use xlink:href="#DejaVuSans-30" x="63.623047"/>
       <use xlink:href="#DejaVuSans-2e" x="127.246094"/>
       <use xlink:href="#DejaVuSans-30" x="159.033203"/>
      </g>
     </g>
    </g>
    <g id="ytick_4">
     <g id="text_9">
      <!-- 12.5 -->
      <g style="fill: #262626" transform="translate(55.78 111.668782)scale(0.275 -0.275)">
       <defs>
        <path id="DejaVuSans-32" d="M 1228 531 
L 3431 531 
L 3431 0 
L 469 0 
L 469 531 
Q 828 903 1448 1529 
Q 2069 2156 2228 2338 
Q 2531 2678 2651 2914 
Q 2772 3150 2772 3378 
Q 2772 3750 2511 3984 
Q 2250 4219 1831 4219 
Q 1534 4219 1204 4116 
Q 875 4013 500 3803 
L 500 4441 
Q 881 4594 1212 4672 
Q 1544 4750 1819 4750 
Q 2544 4750 2975 4387 
Q 3406 4025 3406 3419 
Q 3406 3131 3298 2873 
Q 3191 2616 2906 2266 
Q 2828 2175 2409 1742 
Q 1991 1309 1228 531 
z
" transform="scale(0.015625)"/>
       </defs>
       <use xlink:href="#DejaVuSans-31"/>
       <use xlink:href="#DejaVuSans-32" x="63.623047"/>
       <use xlink:href="#DejaVuSans-2e" x="127.246094"/>
       <use xlink:href="#DejaVuSans-35" x="159.033203"/>
      </g>
     </g>
    </g>
    <g id="text_10">
     <!-- Postsynaptic $f$ (Hz) -->
     <g style="fill: #262626" transform="translate(45.48 422.892578)rotate(-90)scale(0.3 -0.3)">
      <defs>
       <path id="DejaVuSans-50" d="M 1259 4147 
L 1259 2394 
L 2053 2394 
Q 2494 2394 2734 2622 
Q 2975 2850 2975 3272 
Q 2975 3691 2734 3919 
Q 2494 4147 2053 4147 
L 1259 4147 
z
M 628 4666 
L 2053 4666 
Q 2838 4666 3239 4311 
Q 3641 3956 3641 3272 
Q 3641 2581 3239 2228 
Q 2838 1875 2053 1875 
L 1259 1875 
L 1259 0 
L 628 0 
L 628 4666 
z
" transform="scale(0.015625)"/>
       <path id="DejaVuSans-6f" d="M 1959 3097 
Q 1497 3097 1228 2736 
Q 959 2375 959 1747 
Q 959 1119 1226 758 
Q 1494 397 1959 397 
Q 2419 397 2687 759 
Q 2956 1122 2956 1747 
Q 2956 2369 2687 2733 
Q 2419 3097 1959 3097 
z
M 1959 3584 
Q 2709 3584 3137 3096 
Q 3566 2609 3566 1747 
Q 3566 888 3137 398 
Q 2709 -91 1959 -91 
Q 1206 -91 779 398 
Q 353 888 353 1747 
Q 353 2609 779 3096 
Q 1206 3584 1959 3584 
z
" transform="scale(0.015625)"/>
       <path id="DejaVuSans-79" d="M 2059 -325 
Q 1816 -950 1584 -1140 
Q 1353 -1331 966 -1331 
L 506 -1331 
L 506 -850 
L 844 -850 
Q 1081 -850 1212 -737 
Q 1344 -625 1503 -206 
L 1606 56 
L 191 3500 
L 800 3500 
L 1894 763 
L 2988 3500 
L 3597 3500 
L 2059 -325 
z
" transform="scale(0.015625)"/>
       <path id="DejaVuSans-6e" d="M 3513 2113 
L 3513 0 
L 2938 0 
L 2938 2094 
Q 2938 2591 2744 2837 
Q 2550 3084 2163 3084 
Q 1697 3084 1428 2787 
Q 1159 2491 1159 1978 
L 1159 0 
L 581 0 
L 581 3500 
L 1159 3500 
L 1159 2956 
Q 1366 3272 1645 3428 
Q 1925 3584 2291 3584 
Q 2894 3584 3203 3211 
Q 3513 2838 3513 2113 
z
" transform="scale(0.015625)"/>
       <path id="DejaVuSans-61" d="M 2194 1759 
Q 1497 1759 1228 1600 
Q 959 1441 959 1056 
Q 959 750 1161 570 
Q 1363 391 1709 391 
Q 2188 391 2477 730 
Q 2766 1069 2766 1631 
L 2766 1759 
L 2194 1759 
z
M 3341 1997 
L 3341 0 
L 2766 0 
L 2766 531 
Q 2569 213 2275 61 
Q 1981 -91 1556 -91 
Q 1019 -91 701 211 
Q 384 513 384 1019 
Q 384 1609 779 1909 
Q 1175 2209 1959 2209 
L 2766 2209 
L 2766 2266 
Q 2766 2663 2505 2880 
Q 2244 3097 1772 3097 
Q 1472 3097 1187 3025 
Q 903 2953 641 2809 
L 641 3341 
Q 956 3463 1253 3523 
Q 1550 3584 1831 3584 
Q 2591 3584 2966 3190 
Q 3341 2797 3341 1997 
z
" transform="scale(0.015625)"/>
       <path id="DejaVuSans-70" d="M 1159 525 
L 1159 -1331 
L 581 -1331 
L 581 3500 
L 1159 3500 
L 1159 2969 
Q 1341 3281 1617 3432 
Q 1894 3584 2278 3584 
Q 2916 3584 3314 3078 
Q 3713 2572 3713 1747 
Q 3713 922 3314 415 
Q 2916 -91 2278 -91 
Q 1894 -91 1617 61 
Q 1341 213 1159 525 
z
M 3116 1747 
Q 3116 2381 2855 2742 
Q 2594 3103 2138 3103 
Q 1681 3103 1420 2742 
Q 1159 2381 1159 1747 
Q 1159 1113 1420 752 
Q 1681 391 2138 391 
Q 2594 391 2855 752 
Q 3116 1113 3116 1747 
z
" transform="scale(0.015625)"/>
       <path id="DejaVuSans-63" d="M 3122 3366 
L 3122 2828 
Q 2878 2963 2633 3030 
Q 2388 3097 2138 3097 
Q 1578 3097 1268 2742 
Q 959 2388 959 1747 
Q 959 1106 1268 751 
Q 1578 397 2138 397 
Q 2388 397 2633 464 
Q 2878 531 3122 666 
L 3122 134 
Q 2881 22 2623 -34 
Q 2366 -91 2075 -91 
Q 1284 -91 818 406 
Q 353 903 353 1747 
Q 353 2603 823 3093 
Q 1294 3584 2113 3584 
Q 2378 3584 2631 3529 
Q 2884 3475 3122 3366 
z
" transform="scale(0.015625)"/>
       <path id="DejaVuSans-Oblique-66" d="M 3059 4863 
L 2969 4384 
L 2419 4384 
Q 2106 4384 1964 4261 
Q 1822 4138 1753 3809 
L 1691 3500 
L 2638 3500 
L 2553 3053 
L 1606 3053 
L 1013 0 
L 434 0 
L 1031 3053 
L 481 3053 
L 563 3500 
L 1113 3500 
L 1159 3744 
Q 1278 4363 1576 4613 
Q 1875 4863 2516 4863 
L 3059 4863 
z
" transform="scale(0.015625)"/>
       <path id="DejaVuSans-48" d="M 628 4666 
L 1259 4666 
L 1259 2753 
L 3553 2753 
L 3553 4666 
L 4184 4666 
L 4184 0 
L 3553 0 
L 3553 2222 
L 1259 2222 
L 1259 0 
L 628 0 
L 628 4666 
z
" transform="scale(0.015625)"/>
       <path id="DejaVuSans-7a" d="M 353 3500 
L 3084 3500 
L 3084 2975 
L 922 459 
L 3084 459 
L 3084 0 
L 275 0 
L 275 525 
L 2438 3041 
L 353 3041 
L 353 3500 
z
" transform="scale(0.015625)"/>
      </defs>
      <use xlink:href="#DejaVuSans-50" transform="translate(0 0.015625)"/>
      <use xlink:href="#DejaVuSans-6f" transform="translate(60.302734 0.015625)"/>
      <use xlink:href="#DejaVuSans-73" transform="translate(121.484375 0.015625)"/>
      <use xlink:href="#DejaVuSans-74" transform="translate(173.583984 0.015625)"/>
      <use xlink:href="#DejaVuSans-73" transform="translate(212.792969 0.015625)"/>
      <use xlink:href="#DejaVuSans-79" transform="translate(264.892578 0.015625)"/>
      <use xlink:href="#DejaVuSans-6e" transform="translate(324.072266 0.015625)"/>
      <use xlink:href="#DejaVuSans-61" transform="translate(387.451172 0.015625)"/>
      <use xlink:href="#DejaVuSans-70" transform="translate(448.730469 0.015625)"/>
      <use xlink:href="#DejaVuSans-74" transform="translate(512.207031 0.015625)"/>
      <use xlink:href="#DejaVuSans-69" transform="translate(551.416016 0.015625)"/>
      <use xlink:href="#DejaVuSans-63" transform="translate(579.199219 0.015625)"/>
      <use xlink:href="#DejaVuSans-20" transform="translate(634.179688 0.015625)"/>
      <use xlink:href="#DejaVuSans-Oblique-66" transform="translate(665.966797 0.015625)"/>
      <use xlink:href="#DejaVuSans-20" transform="translate(701.171875 0.015625)"/>
      <use xlink:href="#DejaVuSans-28" transform="translate(732.958984 0.015625)"/>
      <use xlink:href="#DejaVuSans-48" transform="translate(771.972656 0.015625)"/>
      <use xlink:href="#DejaVuSans-7a" transform="translate(847.167969 0.015625)"/>
      <use xlink:href="#DejaVuSans-29" transform="translate(899.658203 0.015625)"/>
     </g>
    </g>
   </g>
   <g id="PathCollection_1">
    <defs>
     <path id="mf4315feecc" d="M -3.535534 3.535534 
L 3.535534 -3.535534 
M -3.535534 -3.535534 
L 3.535534 3.535534 
" style="stroke: #d62728; stroke-width: 3.5"/>
    </defs>
    <g clip-path="url(#pe2aa4011a2)">
     <use xlink:href="#mf4315feecc" x="290.040341" y="503.82049" style="fill: #d62728; stroke: #d62728; stroke-width: 3.5"/>
    </g>
   </g>
   <g id="PolyCollection_1">
    <defs>
     <path id="m654fd74be2" d="M 153.765447 -185.162282 
L 153.765447 -131.782867 
L 181.020426 -168.088012 
L 208.275405 -146.374094 
L 235.530384 -284.394137 
L 262.785362 -485.081356 
L 290.040341 -559.909116 
L 317.29532 -489.309618 
L 344.550298 -245.780391 
L 371.805277 -137.112318 
L 399.060256 -139.7498 
L 426.315234 -143.770895 
L 453.570213 -164.944358 
L 480.825192 -161.088085 
L 508.08017 -171.675269 
L 535.335149 -187.703062 
L 562.590128 -185.086103 
L 589.845107 -197.513917 
L 617.100085 -160.04311 
L 644.355064 -133.42772 
L 671.610043 -121.882662 
L 698.865021 -115.77326 
L 698.865021 -143.78576 
L 698.865021 -143.78576 
L 671.610043 -168.162738 
L 644.355064 -224.763709 
L 617.100085 -196.355002 
L 589.845107 -246.756704 
L 562.590128 -255.597886 
L 535.335149 -244.014344 
L 508.08017 -204.449325 
L 480.825192 -182.756811 
L 453.570213 -177.107222 
L 426.315234 -180.347519 
L 399.060256 -177.195348 
L 371.805277 -192.386046 
L 344.550298 -313.262489 
L 317.29532 -516.269077 
L 290.040341 -587.341584 
L 262.785362 -534.84387 
L 235.530384 -335.621504 
L 208.275405 -177.744321 
L 181.020426 -217.003165 
L 153.765447 -185.162282 
z
" style="stroke: #808080; stroke-opacity: 0.3"/>
    </defs>
    <g clip-path="url(#pe2aa4011a2)">
     <use xlink:href="#m654fd74be2" x="0" y="633.6" style="fill: #808080; fill-opacity: 0.3; stroke: #808080; stroke-opacity: 0.3"/>
    </g>
   </g>
   <g id="line2d_1">
    <path d="M 153.765447 475.127426 
L 181.020426 441.054412 
L 208.275405 471.540793 
L 235.530384 323.592179 
L 262.785362 123.637387 
L 290.040341 59.97465 
L 317.29532 130.810653 
L 344.550298 354.07856 
L 371.805277 468.850818 
L 399.060256 475.127426 
L 426.315234 471.540793 
L 453.570213 462.57421 
L 480.825192 461.677552 
L 508.08017 445.537703 
L 535.335149 417.741297 
L 562.590128 413.258006 
L 589.845107 411.464689 
L 617.100085 455.400944 
L 644.355064 454.504286 
L 671.610043 488.5773 
L 698.865021 503.82049 
" clip-path="url(#pe2aa4011a2)" style="fill: none; stroke: #808080; stroke-opacity: 0.9; stroke-width: 2; stroke-linecap: round"/>
    <defs>
     <path id="mb9ac42eb28" d="M 0 5 
C 1.326016 5 2.597899 4.473168 3.535534 3.535534 
C 4.473168 2.597899 5 1.326016 5 0 
C 5 -1.326016 4.473168 -2.597899 3.535534 -3.535534 
C 2.597899 -4.473168 1.326016 -5 0 -5 
C -1.326016 -5 -2.597899 -4.473168 -3.535534 -3.535534 
C -4.473168 -2.597899 -5 -1.326016 -5 0 
C -5 1.326016 -4.473168 2.597899 -3.535534 3.535534 
C -2.597899 4.473168 -1.326016 5 0 5 
z
" style="stroke: #808080; stroke-opacity: 0.9; stroke-width: 1.5"/>
    </defs>
    <g clip-path="url(#pe2aa4011a2)">
     <use xlink:href="#mb9ac42eb28" x="153.765447" y="475.127426" style="fill: #808080; fill-opacity: 0.9; stroke: #808080; stroke-opacity: 0.9; stroke-width: 1.5"/>
     <use xlink:href="#mb9ac42eb28" x="181.020426" y="441.054412" style="fill: #808080; fill-opacity: 0.9; stroke: #808080; stroke-opacity: 0.9; stroke-width: 1.5"/>
     <use xlink:href="#mb9ac42eb28" x="208.275405" y="471.540793" style="fill: #808080; fill-opacity: 0.9; stroke: #808080; stroke-opacity: 0.9; stroke-width: 1.5"/>
     <use xlink:href="#mb9ac42eb28" x="235.530384" y="323.592179" style="fill: #808080; fill-opacity: 0.9; stroke: #808080; stroke-opacity: 0.9; stroke-width: 1.5"/>
     <use xlink:href="#mb9ac42eb28" x="262.785362" y="123.637387" style="fill: #808080; fill-opacity: 0.9; stroke: #808080; stroke-opacity: 0.9; stroke-width: 1.5"/>
     <use xlink:href="#mb9ac42eb28" x="290.040341" y="59.97465" style="fill: #808080; fill-opacity: 0.9; stroke: #808080; stroke-opacity: 0.9; stroke-width: 1.5"/>
     <use xlink:href="#mb9ac42eb28" x="317.29532" y="130.810653" style="fill: #808080; fill-opacity: 0.9; stroke: #808080; stroke-opacity: 0.9; stroke-width: 1.5"/>
     <use xlink:href="#mb9ac42eb28" x="344.550298" y="354.07856" style="fill: #808080; fill-opacity: 0.9; stroke: #808080; stroke-opacity: 0.9; stroke-width: 1.5"/>
     <use xlink:href="#mb9ac42eb28" x="371.805277" y="468.850818" style="fill: #808080; fill-opacity: 0.9; stroke: #808080; stroke-opacity: 0.9; stroke-width: 1.5"/>
     <use xlink:href="#mb9ac42eb28" x="399.060256" y="475.127426" style="fill: #808080; fill-opacity: 0.9; stroke: #808080; stroke-opacity: 0.9; stroke-width: 1.5"/>
     <use xlink:href="#mb9ac42eb28" x="426.315234" y="471.540793" style="fill: #808080; fill-opacity: 0.9; stroke: #808080; stroke-opacity: 0.9; stroke-width: 1.5"/>
     <use xlink:href="#mb9ac42eb28" x="453.570213" y="462.57421" style="fill: #808080; fill-opacity: 0.9; stroke: #808080; stroke-opacity: 0.9; stroke-width: 1.5"/>
     <use xlink:href="#mb9ac42eb28" x="480.825192" y="461.677552" style="fill: #808080; fill-opacity: 0.9; stroke: #808080; stroke-opacity: 0.9; stroke-width: 1.5"/>
     <use xlink:href="#mb9ac42eb28" x="508.08017" y="445.537703" style="fill: #808080; fill-opacity: 0.9; stroke: #808080; stroke-opacity: 0.9; stroke-width: 1.5"/>
     <use xlink:href="#mb9ac42eb28" x="535.335149" y="417.741297" style="fill: #808080; fill-opacity: 0.9; stroke: #808080; stroke-opacity: 0.9; stroke-width: 1.5"/>
     <use xlink:href="#mb9ac42eb28" x="562.590128" y="413.258006" style="fill: #808080; fill-opacity: 0.9; stroke: #808080; stroke-opacity: 0.9; stroke-width: 1.5"/>
     <use xlink:href="#mb9ac42eb28" x="589.845107" y="411.464689" style="fill: #808080; fill-opacity: 0.9; stroke: #808080; stroke-opacity: 0.9; stroke-width: 1.5"/>
     <use xlink:href="#mb9ac42eb28" x="617.100085" y="455.400944" style="fill: #808080; fill-opacity: 0.9; stroke: #808080; stroke-opacity: 0.9; stroke-width: 1.5"/>
     <use xlink:href="#mb9ac42eb28" x="644.355064" y="454.504286" style="fill: #808080; fill-opacity: 0.9; stroke: #808080; stroke-opacity: 0.9; stroke-width: 1.5"/>
     <use xlink:href="#mb9ac42eb28" x="671.610043" y="488.5773" style="fill: #808080; fill-opacity: 0.9; stroke: #808080; stroke-opacity: 0.9; stroke-width: 1.5"/>
     <use xlink:href="#mb9ac42eb28" x="698.865021" y="503.82049" style="fill: #808080; fill-opacity: 0.9; stroke: #808080; stroke-opacity: 0.9; stroke-width: 1.5"/>
    </g>
   </g>
   <g id="patch_3">
    <path d="M 126.510469 541.405156 
L 126.510469 22.68 
" style="fill: none; stroke: #262626; stroke-width: 3.5; stroke-linejoin: miter; stroke-linecap: square"/>
   </g>
   <g id="patch_4">
    <path d="M 126.510469 541.405156 
L 726.12 541.405156 
" style="fill: none; stroke: #262626; stroke-width: 3.5; stroke-linejoin: miter; stroke-linecap: square"/>
   </g>
   <g id="text_11">
    <!-- 45.0 deg -->
    <g style="fill: #262626" transform="translate(296.097003 503.82049)scale(0.21 -0.21)">
     <defs>
      <path id="DejaVuSans-34" d="M 2419 4116 
L 825 1625 
L 2419 1625 
L 2419 4116 
z
M 2253 4666 
L 3047 4666 
L 3047 1625 
L 3713 1625 
L 3713 1100 
L 3047 1100 
L 3047 0 
L 2419 0 
L 2419 1100 
L 313 1100 
L 313 1709 
L 2253 4666 
z
" transform="scale(0.015625)"/>
     </defs>
     <use xlink:href="#DejaVuSans-34"/>
     <use xlink:href="#DejaVuSans-35" x="63.623047"/>
     <use xlink:href="#DejaVuSans-2e" x="127.246094"/>
     <use xlink:href="#DejaVuSans-30" x="159.033203"/>
     <use xlink:href="#DejaVuSans-20" x="222.65625"/>
     <use xlink:href="#DejaVuSans-64" x="254.443359"/>
     <use xlink:href="#DejaVuSans-65" x="317.919922"/>
     <use xlink:href="#DejaVuSans-67" x="379.443359"/>
    </g>
   </g>
  </g>
 </g>
 <defs>
  <clipPath id="pe2aa4011a2">
   <rect x="126.510469" y="22.68" width="599.609531" height="518.725156"/>
  </clipPath>
 </defs>
</svg>
